<?xml version="1.0" encoding="UTF-8" standalone="no"?>
<!-- Creator: CorelDRAW -->

<svg
   xml:space="preserve"
   width="6.82666in"
   height="6.82666in"
   style="shape-rendering:geometricPrecision; text-rendering:geometricPrecision; image-rendering:optimizeQuality; fill-rule:evenodd; clip-rule:evenodd"
   viewBox="0 0 6.82666 6.82666"
   version="1.1"
   id="svg2"
   sodipodi:docname="agendaa.svg"
   inkscape:version="1.3.2 (091e20e, 2023-11-25, custom)"
   xmlns:inkscape="http://www.inkscape.org/namespaces/inkscape"
   xmlns:sodipodi="http://sodipodi.sourceforge.net/DTD/sodipodi-0.dtd"
   xmlns:xlink="http://www.w3.org/1999/xlink"
   xmlns="http://www.w3.org/2000/svg"
   xmlns:svg="http://www.w3.org/2000/svg"><sodipodi:namedview
   id="namedview2"
   pagecolor="#ffffff"
   bordercolor="#000000"
   borderopacity="0.25"
   inkscape:showpageshadow="2"
   inkscape:pageopacity="0.0"
   inkscape:pagecheckerboard="0"
   inkscape:deskcolor="#d1d1d1"
   inkscape:document-units="in"
   inkscape:zoom="1.2527478"
   inkscape:cx="327.67969"
   inkscape:cy="327.67969"
   inkscape:window-width="1920"
   inkscape:window-height="1017"
   inkscape:window-x="-8"
   inkscape:window-y="-8"
   inkscape:window-maximized="1"
   inkscape:current-layer="svg2" />
 <defs
   id="defs1"><linearGradient
   id="linearGradient2"
   inkscape:collect="always"><stop
     style="stop-color:#64140a;stop-opacity:0.71481484;"
     offset="0"
     id="stop2" /><stop
     style="stop-color:#64140a;stop-opacity:0;"
     offset="1"
     id="stop3" /></linearGradient>
  <style
   type="text/css"
   id="style1">
   <![CDATA[
    .fil2 {fill:none}
    .fil0 {fill:#424242}
    .fil1 {fill:#FFFFFE;fill-rule:nonzero}
   ]]>
  </style>
 <radialGradient
   inkscape:collect="always"
   xlink:href="#linearGradient2"
   id="radialGradient3"
   cx="3.4133301"
   cy="3.4133301"
   fx="3.4133301"
   fy="3.4133301"
   r="3.4133301"
   gradientUnits="userSpaceOnUse" /></defs>
 <rect
   class="fil0"
   width="6.82666"
   height="6.82666"
   id="rect1"
   style="fill:url(#radialGradient3);fill-opacity:1" />
 <g
   id="Layer_x0020_1"
   inkscape:label="Layer 1">
  <metadata
   id="CorelCorpID_0Corel-Layer" />
  <path
   class="fil1"
   d="M2.57506 1.72359c0.167161,0 0.318512,0.0677638 0.428071,0.177323 0.109551,0.109559 0.177323,0.260909 0.177323,0.428071 0,0.167161 -0.0677717,0.318512 -0.177323,0.428071 -0.109559,0.109551 -0.260909,0.177323 -0.428071,0.177323 -0.167161,0 -0.318512,-0.0677717 -0.428071,-0.177323 -0.109551,-0.109559 -0.177323,-0.260909 -0.177323,-0.428071 0,-0.167161 0.0677638,-0.318512 0.177323,-0.428071 0.109559,-0.109559 0.260909,-0.177323 0.428071,-0.177323z"
   id="path1"
   style="fill:#c7b9ae;fill-opacity:1" />
  <path
   class="fil1"
   d="M3.42389 4.1199l0.00551181 0.875843 0.000413386 -3.93701e-006c0.000366142,0.0589094 -0.0470866,0.106969 -0.105996,0.107335l-0.000669291 -3.93701e-006 0 7.87402e-006 -1.49618 0c-0.0589094,0 -0.106669,-0.0477598 -0.106669,-0.106669l0 -0.475713 -0.198441 0.414484 -0.0958346 -0.0458346 0.0962087 0.046063c-0.0186142,0.0388819 -0.0577165,0.0613268 -0.0981772,0.0606063l-0.464059 0c-0.0589094,0 -0.106669,-0.0477598 -0.106669,-0.106669 0,-0.0207756 0.00594882,-0.0401614 0.0162244,-0.0565591 0.0307205,-0.0573504 0.0764843,-0.150827 0.133776,-0.267854 0.267394,-0.546173 0.768799,-1.57036 1.03943,-1.57036l1.0646 0c0.0535118,0 0.107106,0.0155748 0.154205,0.0398307 0.050126,0.0258228 0.0943228,0.0626181 0.123697,0.101323l0.546622 0.583622 0.378472 -0.277803 -0.000141732 -0.00019685c0.0216654,-0.0159016 0.0473386,-0.0224134 0.0721654,-0.0202913l0.783224 -0.00238583 0 -0.000413386c0.0589094,-0.000177165 0.106811,0.0474331 0.106988,0.106343 0.000122047,0.0407087 -0.0225827,0.0761575 -0.0560591,0.0942362l-1.33674 0.868264 -0.0579173 -0.0891654 0.0581024 0.0894528c-0.0462874,0.030063 -0.107205,0.0196378 -0.141094,-0.0224291l-0.314996 -0.345059z"
   id="path2"
   style="fill:#c7b9ae;fill-opacity:1" />
  <g
   id="_399192032"
   style="fill:#c7b9ae;fill-opacity:1">
   <path
   id="_399192440"
   class="fil1"
   d="M4.91908 2.07906c0.0413071,0 0.0787126,0.016752 0.105791,0.0438307 0.0270748,0.0270748 0.0438268,0.0644803 0.0438268,0.105791 0,0.0413071 -0.016752,0.0787126 -0.0438268,0.105791 -0.0270787,0.0270748 -0.0644843,0.0438268 -0.105791,0.0438268 -0.0413071,0 -0.0787126,-0.016752 -0.105791,-0.0438268 -0.0270748,-0.0270787 -0.0438268,-0.0644843 -0.0438268,-0.105791 0,-0.041311 0.016752,-0.0787165 0.0438268,-0.105791 0.0270787,-0.0270787 0.0644843,-0.0438307 0.105791,-0.0438307z"
   style="fill:#c7b9ae;fill-opacity:1" />
   <path
   id="_399191384"
   class="fil1"
   d="M3.9715 3.18287c-0.0589094,0 -0.106669,0.0341732 -0.106669,0.0763228 0,0.0421496 0.0477598,0.0763228 0.106669,0.0763228l1.89517 0c0.0589094,0 0.106669,-0.0341732 0.106669,-0.0763228 0,-0.0421496 -0.0477598,-0.0763228 -0.106669,-0.0763228l-1.89517 0z"
   style="fill:#c7b9ae;fill-opacity:1" />
   <path
   id="_399192056"
   class="fil1"
   d="M4.11419 3.13028c0,-0.222248 0.0900984,-0.423472 0.235756,-0.56913 0.145657,-0.145661 0.346882,-0.235756 0.56913,-0.235756 0.222248,0 0.423472,0.0900945 0.56913,0.235756 0.145657,0.145657 0.235756,0.346882 0.235756,0.56913 -0.355803,0 -0.972776,0 -1.60977,0z"
   style="fill:#c7b9ae;fill-opacity:1" />
  </g>
 </g>
 <rect
   class="fil2"
   width="6.82666"
   height="6.82666"
   id="rect2" />
</svg>
